<?xml version="1.0" standalone="no"?>
<!DOCTYPE svg PUBLIC "-//W3C//DTD SVG 20010904//EN"
 "http://www.w3.org/TR/2001/REC-SVG-20010904/DTD/svg10.dtd">
<svg version="1.0" xmlns="http://www.w3.org/2000/svg"
 width="300.000000pt" height="110.000000pt" viewBox="0 0 300.000000 110.000000"
 preserveAspectRatio="xMidYMid meet">
<metadata>
Created by potrace 1.10, written by Peter Selinger 2001-2011
</metadata>
<g transform="translate(0.000000,110.000000) scale(0.100000,-0.100000)"
fill="#000000" stroke="none">
<path d="M2196 1031 c-3 -5 4 -11 16 -14 18 -5 19 -8 8 -21 -7 -9 -17 -16 -22
-16 -7 0 -6 5 1 13 8 11 5 13 -19 9 -16 -2 -38 -1 -47 3 -27 12 -83 13 -83 2
0 -5 -6 -7 -14 -4 -7 3 -20 -3 -30 -14 -32 -38 -11 -143 36 -172 30 -19 98
-31 98 -17 0 5 -10 10 -23 10 -32 0 -96 46 -103 74 -11 47 0 90 28 105 25 14
33 14 95 -8 55 -19 73 -21 96 -12 33 13 34 24 5 51 -24 22 -34 25 -42 11z"/>
<path d="M2037 963 c-4 -3 -7 -21 -7 -39 0 -25 8 -39 37 -63 31 -26 46 -31 90
-31 49 0 52 1 55 28 3 24 7 27 41 28 39 1 66 14 29 14 -28 0 -52 10 -52 22 0
6 6 8 14 5 8 -3 22 4 33 15 18 21 18 21 -2 13 -43 -17 -111 -17 -143 -1 -32
16 -83 21 -95 9z m95 -29 c35 -9 67 -19 71 -23 4 -4 -2 -20 -14 -35 -19 -24
-27 -27 -56 -21 -50 9 -81 46 -74 88 1 9 -1 10 73 -9z"/>
<path d="M2395 920 l-50 -7 55 -2 c117 -4 201 -36 273 -105 26 -26 52 -44 57
-41 10 6 -64 85 -80 85 -5 0 -10 4 -10 9 0 9 -99 46 -146 55 -10 3 -26 6 -34
9 -8 2 -37 1 -65 -3z"/>
<path d="M2405 870 c90 -8 135 -18 135 -31 0 -5 7 -6 15 -3 8 4 15 1 15 -4 0
-6 8 -13 19 -17 23 -7 101 -83 101 -97 0 -7 7 -19 15 -28 9 -10 18 -28 21 -41
21 -89 24 -120 18 -164 -3 -27 -7 -58 -7 -67 -1 -10 -4 -18 -8 -18 -4 0 -17
-20 -29 -45 -12 -25 -25 -43 -29 -40 -4 2 -18 -9 -30 -25 -33 -45 -168 -98
-209 -83 -11 5 -13 3 -7 -6 19 -32 170 18 238 79 83 72 121 194 98 311 -17 85
-71 186 -92 173 -5 -3 -7 1 -4 8 7 17 -84 77 -143 94 -25 8 -79 13 -121 12
l-76 -1 80 -7z"/>
<path d="M2267 863 c-3 -2 6 -26 19 -53 13 -28 24 -55 24 -61 0 -5 5 -7 12 -3
7 4 8 3 4 -5 -4 -6 2 -28 13 -47 12 -19 21 -39 21 -45 0 -20 145 -324 159
-333 12 -8 15 6 4 18 -4 3 -8 12 -9 19 -1 7 -22 56 -48 109 -25 53 -46 101
-46 107 0 6 -4 11 -8 11 -5 0 -9 6 -9 14 0 8 -16 48 -36 90 -20 41 -37 77 -37
80 0 2 -5 17 -12 33 -16 41 -18 57 -6 64 5 4 -1 7 -16 7 -14 0 -27 -2 -29 -5z"/>
<path d="M2240 844 c0 -11 89 -182 90 -172 0 8 -77 168 -85 176 -3 3 -5 1 -5
-4z"/>
<path d="M2206 821 c-4 -6 -16 -11 -27 -11 -11 0 -18 -4 -14 -10 3 -5 12 -7
20 -3 8 3 15 -1 15 -8 0 -7 3 -9 7 -6 3 4 18 -12 32 -35 25 -42 27 -47 30 -69
0 -5 6 -7 13 -3 8 5 9 2 5 -10 -4 -11 -3 -15 4 -11 6 4 10 1 8 -6 -3 -26 1
-40 10 -35 5 3 12 -10 16 -30 4 -26 10 -34 21 -30 8 3 12 1 9 -4 -6 -10 52
-141 67 -151 5 -3 9 -9 8 -13 0 -3 7 -22 16 -41 17 -36 44 -65 44 -47 0 21
-246 499 -270 525 -4 5 -11 4 -14 -2z"/>
<path d="M272 731 l-40 -37 0 -105 c0 -57 3 -108 7 -114 9 -14 8 -114 -1 -109
-7 5 -1 -76 8 -104 2 -7 -1 -10 -6 -7 -6 3 -10 2 -10 -4 0 -5 5 -13 11 -17 6
-3 9 -18 6 -33 -7 -35 12 -58 55 -66 29 -6 36 -4 35 8 -1 9 3 16 8 16 6 0 9
-7 9 -15 -2 -12 1 -12 13 -3 7 7 12 18 9 25 -3 7 -1 16 5 19 5 4 7 10 4 16
-10 16 7 79 21 79 20 0 18 -69 -1 -91 -15 -15 -14 -16 17 -10 l33 7 3 89 c4
113 -1 125 -33 95 -13 -12 -27 -35 -30 -51 -11 -48 -25 -33 -25 26 l0 55 125
0 125 0 0 -55 c0 -30 -2 -55 -5 -55 -3 0 -11 15 -18 33 -16 38 -45 69 -57 62
-4 -2 -8 -48 -9 -100 l-2 -95 30 -6 c17 -4 31 -11 31 -17 0 -6 3 -7 6 -4 4 4
2 12 -4 19 -15 19 -23 81 -10 89 5 4 18 4 28 2 16 -4 18 -13 14 -56 -3 -42 0
-54 17 -70 11 -10 23 -17 25 -14 3 3 19 1 35 -3 18 -5 29 -5 29 1 0 6 5 7 10
4 6 -4 18 -1 26 6 11 9 18 9 26 1 15 -15 71 -15 117 -2 21 6 39 6 46 0 6 -5
29 -9 50 -9 125 2 181 5 191 11 7 5 30 1 53 -7 23 -8 41 -11 41 -7 0 4 59 7
130 6 73 0 130 4 130 9 0 5 10 6 23 2 12 -4 31 -8 42 -10 11 -1 28 -6 37 -9 9
-4 25 -4 35 1 10 5 68 8 128 7 87 -1 117 2 144 16 31 15 39 16 68 4 18 -8 33
-10 33 -5 0 6 12 6 28 2 36 -10 109 -6 124 7 25 21 51 80 43 99 -12 27 -15 44
-16 84 -1 40 -14 68 -25 56 -4 -4 -7 -23 -6 -42 1 -25 -3 -35 -13 -35 -8 0
-15 6 -15 14 0 22 -57 58 -80 51 -40 -13 -22 -41 40 -65 66 -25 99 -77 72
-116 -28 -40 -93 -56 -128 -29 -26 19 -42 19 -47 -2 -3 -10 -5 9 -6 41 l-1 59
23 -34 c27 -41 74 -66 96 -52 30 19 21 33 -36 58 -32 14 -64 33 -70 42 -18 24
-16 67 4 85 37 32 57 37 95 23 26 -8 40 -9 47 -2 18 18 12 28 -14 21 -14 -3
-25 -2 -25 3 0 8 -32 9 -98 4 -7 -1 -11 -5 -8 -10 3 -5 -6 -12 -19 -15 -15 -4
-23 -11 -19 -17 4 -7 -1 -7 -15 0 -11 7 -21 14 -21 17 0 3 5 2 12 -2 7 -4 8
-3 4 4 -4 7 -13 12 -20 12 -8 0 -19 7 -27 16 -7 9 -22 14 -36 11 -13 -2 -26 0
-29 4 -3 5 6 9 20 9 14 0 26 5 26 10 0 6 10 10 23 11 15 1 12 4 -13 10 -19 5
-60 6 -90 2 -30 -3 -47 -8 -37 -10 9 -3 17 -9 17 -14 0 -5 9 -9 20 -9 11 0 20
-4 20 -8 0 -4 -24 -8 -53 -8 -36 1 -62 -5 -82 -18 l-29 -19 23 -18 c13 -11 18
-19 12 -19 -6 0 -11 -13 -11 -29 0 -17 -5 -33 -10 -36 -6 -3 -10 0 -10 9 0 28
-64 127 -78 121 -17 -6 -44 13 -36 26 9 15 24 10 18 -6 -4 -8 -1 -15 5 -15 6
0 11 5 11 10 0 6 10 10 23 10 12 0 33 9 47 20 14 11 31 20 38 20 6 0 12 7 12
15 0 9 7 18 15 21 8 4 12 10 9 15 -3 5 -1 9 5 9 12 0 24 -37 16 -50 -4 -6 2
-7 17 -1 18 6 24 17 26 49 4 52 -46 138 -92 158 -29 13 -27 13 50 14 84 0 101
5 84 25 -12 14 -115 12 -133 -3 -13 -10 -42 -9 -70 3 -17 7 -104 9 -230 7 -26
-1 -58 -7 -70 -14 -19 -11 1 -14 135 -18 139 -4 160 -7 185 -26 62 -46 64
-152 3 -188 -24 -14 -55 -18 -136 -19 -79 -2 -104 -5 -104 -15 0 -9 7 -11 20
-7 11 4 20 2 20 -4 0 -6 18 -11 40 -11 33 0 40 -3 40 -20 0 -11 -4 -20 -10
-20 -5 0 -17 -16 -26 -35 -19 -41 -32 -46 -28 -10 1 16 -6 33 -19 45 -22 21
-28 23 -67 21 -20 -2 -22 0 -10 8 8 6 11 11 7 11 -15 0 38 48 58 52 18 3 20
11 20 103 l0 100 -35 0 -35 0 -5 -110 c-3 -60 -8 -109 -12 -107 -5 1 -14 2
-21 2 -7 0 -41 38 -76 85 -34 47 -66 87 -71 90 -4 3 -7 -31 -6 -75 1 -78 1
-79 29 -85 42 -10 22 -25 -34 -25 -48 0 -66 13 -31 24 14 5 17 20 18 100 1 91
0 93 -25 104 -22 8 -16 10 40 11 61 1 68 -1 84 -25 16 -24 24 -35 75 -94 l22
-25 -6 25 c-3 14 -6 42 -6 62 0 29 -5 38 -22 43 -13 4 -37 18 -55 31 -34 26
-83 31 -129 14 -14 -6 -32 -7 -38 -2 -18 13 -208 7 -242 -8 -27 -11 -36 -11
-65 2 -28 12 -77 15 -264 13 -126 -1 -240 2 -251 6 -17 6 -30 -1 -62 -30z m71
-3 c-2 -5 -3 -21 -3 -38 0 -28 -2 -30 -40 -30 -33 0 -40 3 -40 19 0 17 5 19
35 14 39 -6 43 1 18 30 -17 18 -17 19 7 16 14 -2 24 -7 23 -11z m817 -59 c0
-56 -12 -63 -30 -19 -15 36 -46 60 -77 60 -22 0 -23 -2 -23 -105 l0 -105 26 0
c38 0 64 18 80 56 20 49 34 42 31 -16 -2 -57 14 -52 -164 -54 -89 -1 -116 6
-73 17 19 5 21 12 18 104 l-3 98 -30 4 c-67 8 8 16 124 13 l121 -3 0 -50z
m-308 34 c34 -30 18 -93 -24 -93 -10 0 -18 -4 -18 -10 0 -5 9 -10 20 -10 13 0
25 -10 32 -27 17 -39 17 -39 33 -17 14 19 14 19 15 -2 0 -32 -33 -56 -72 -52
-30 3 -34 7 -50 56 -16 49 -16 56 -2 78 19 28 12 69 -12 78 -28 11 -32 -2 -31
-95 2 -74 5 -93 20 -103 9 -7 17 -15 17 -17 0 -2 -34 -4 -75 -4 -73 -1 -96 7
-55 18 19 5 21 12 18 104 -3 90 -5 98 -23 98 -18 0 -20 -6 -17 -47 3 -55 -11
-63 -27 -16 -12 34 -38 68 -53 68 -5 0 -7 -46 -6 -102 3 -97 4 -103 25 -106
21 -3 21 -1 16 52 -4 39 -2 56 6 56 6 0 11 -5 11 -11 0 -5 4 -8 9 -5 17 11 22
-45 6 -76 -8 -17 -15 -32 -15 -34 0 -1 14 -7 31 -13 26 -9 29 -13 19 -31 -6
-11 -18 -20 -26 -20 -8 0 -12 5 -9 10 4 6 -16 11 -52 11 -47 1 -52 3 -24 8 49
9 50 28 2 36 -46 8 -131 -3 -131 -17 0 -5 6 -8 13 -7 6 1 19 -1 27 -4 8 -3 24
-8 35 -11 11 -3 5 -4 -12 -2 -18 1 -33 -1 -33 -6 0 -5 -8 -4 -18 1 -11 6 -24
6 -35 0 -11 -7 -17 -6 -17 1 0 5 5 10 10 10 6 0 10 5 10 11 0 5 -4 7 -10 4
-14 -9 -13 8 2 23 8 8 8 15 1 24 -12 15 -5 80 8 72 5 -3 9 0 9 6 0 6 5 8 10 5
14 -9 12 -69 -2 -84 -11 -10 -7 -12 17 -9 l30 3 3 103 c1 56 -1 102 -6 102
-15 0 -41 -34 -53 -68 -6 -18 -15 -30 -19 -27 -6 4 -6 71 0 103 0 1 102 2 227
2 197 0 229 -2 245 -17z m238 -104 c0 -37 -4 -58 -10 -54 -5 3 -10 14 -10 24
0 9 -6 23 -12 30 -10 11 -10 14 0 18 6 3 12 13 12 24 0 10 5 19 10 19 6 0 10
-27 10 -61z m-800 42 c0 -6 -5 -13 -10 -16 -6 -4 -7 -11 -4 -17 4 -6 10 -5 15
3 7 12 11 12 17 1 5 -7 15 -12 23 -10 8 2 14 -3 14 -11 0 -8 -15 -15 -42 -17
-41 -4 -42 -3 -41 29 0 17 3 35 5 40 6 10 23 9 23 -2z m58 -98 c-2 -13 -15
-19 -47 -21 -32 -2 -42 0 -39 10 3 7 14 13 26 13 11 0 24 4 28 8 14 14 35 7
32 -10z m966 -38 c26 -25 51 -45 56 -45 6 0 10 -7 10 -15 0 -12 -11 -14 -58
-9 -48 5 -63 3 -92 -15 l-35 -21 138 0 137 0 0 -57 c-1 -53 -2 -56 -15 -39 -8
11 -15 24 -15 29 0 19 -55 57 -84 57 -14 0 -16 -16 -16 -105 l0 -105 26 0 c38
0 64 18 80 56 20 47 36 43 32 -7 -2 -27 1 -44 9 -46 14 -5 17 1 64 130 43 115
58 115 99 -2 37 -105 54 -131 84 -131 32 0 37 19 35 117 -2 79 -3 83 -25 83
-12 0 -26 5 -29 10 -4 6 27 10 85 10 133 0 187 -29 197 -107 7 -58 -10 -91
-59 -112 -36 -16 -68 -19 -200 -17 -86 0 -160 4 -164 9 -4 4 2 7 14 7 26 0 27
4 7 61 -27 77 -26 76 -35 54 -13 -31 -11 -43 8 -48 15 -4 14 -6 -5 -12 -26 -8
-38 -44 -17 -52 41 -15 -3 -21 -156 -20 -93 0 -170 5 -170 9 0 4 9 8 20 8 20
0 21 5 18 102 l-3 102 -30 6 c-38 8 -77 29 -55 30 12 0 11 3 -3 11 -14 8 -16
14 -6 25 7 9 16 11 23 5 13 -10 77 -11 71 0 -3 4 6 10 20 13 30 8 31 17 5 41
-18 17 -26 35 -16 35 3 0 25 -20 50 -45z m-964 -10 c0 -11 -12 -15 -45 -15
-33 0 -45 4 -45 15 0 11 12 15 45 15 33 0 45 -4 45 -15z m0 -43 c0 -20 -53
-44 -76 -35 -23 9 -16 18 29 35 23 8 43 16 45 17 1 0 2 -7 2 -17z m440 8 c0
-5 7 -7 15 -4 18 7 20 -3 3 -19 -10 -10 -23 -10 -58 0 -43 11 -43 11 -12 12
19 1 31 5 27 11 -3 6 1 10 9 10 9 0 16 -4 16 -10z m155 0 c3 -5 18 -11 33 -11
27 -2 27 -2 2 -6 -13 -3 -30 -12 -37 -21 -8 -11 -12 -12 -13 -4 0 6 -6 12 -12
12 -22 0 -41 17 -34 29 9 14 53 15 61 1z m115 -9 c0 -4 12 -6 28 -4 23 4 24 3
9 -7 -19 -12 -57 -5 -57 11 0 5 5 9 10 9 6 0 10 -4 10 -9z m105 -74 c23 -19
25 -26 16 -50 -6 -15 -23 -33 -38 -39 -27 -11 -27 -12 -5 -16 13 -2 28 -15 35
-30 16 -38 16 -38 32 -16 14 19 14 18 15 -3 0 -34 -27 -54 -69 -51 -33 3 -37
7 -51 50 -8 26 -18 50 -22 53 -3 4 2 15 13 26 23 23 24 52 3 74 -29 29 -39 12
-42 -71 -3 -93 3 -124 23 -124 8 0 15 -3 15 -8 0 -4 -34 -8 -75 -8 -72 -1 -97
8 -55 19 18 5 20 14 20 101 0 93 -1 96 -24 102 -14 3 -34 3 -45 -1 -19 -6 -21
-14 -21 -102 0 -86 2 -95 20 -100 50 -13 9 -19 -130 -19 -139 1 -179 6 -130
19 18 5 20 14 20 101 0 91 -1 97 -22 106 -15 5 70 9 234 9 253 1 257 1 283
-22z m-855 -2 c0 -16 -35 -21 -44 -6 -8 12 4 21 26 21 10 0 18 -7 18 -15z m40
-40 c0 -11 -11 -15 -40 -15 -29 0 -40 4 -40 15 0 11 11 15 40 15 29 0 40 -4
40 -15z m1050 -51 c0 -41 -4 -63 -10 -59 -5 3 -10 15 -10 26 0 10 -4 19 -10
19 -5 0 -10 7 -10 15 0 8 5 15 10 15 6 0 10 8 10 18 0 17 8 32 17 32 2 0 3
-30 3 -66z m119 34 c-1 -7 -4 -24 -9 -38 l-7 -25 -8 27 c-7 28 -1 48 16 48 5
0 9 -6 8 -12z m-1209 -33 c0 -8 -9 -15 -20 -15 -11 0 -20 7 -20 15 0 8 9 15
20 15 11 0 20 -7 20 -15z m40 -35 c0 -17 -7 -20 -40 -20 -50 0 -57 27 -7 33
17 2 35 5 40 5 4 1 7 -7 7 -18z m0 -48 c0 -22 -53 -47 -75 -34 -23 12 0 28 73
51 1 1 2 -7 2 -17z"/>
<path d="M1840 285 c0 -93 2 -105 18 -105 9 0 23 4 30 9 35 21 32 162 -4 188
-39 29 -44 19 -44 -92z"/>
<path d="M752 369 c-5 -11 -7 -42 -6 -67 1 -26 3 -64 3 -85 1 -37 2 -38 34
-35 l32 3 1 95 c1 79 -1 96 -15 102 -28 12 -41 8 -49 -13z"/>
<path d="M2729 755 c-3 -3 8 -33 25 -67 28 -57 31 -71 31 -163 0 -89 -3 -106
-28 -157 -55 -112 -156 -184 -275 -197 -66 -7 -66 -7 -26 -14 29 -5 53 -2 78
8 20 8 36 13 36 10 0 -9 76 33 89 49 8 9 20 16 27 16 8 0 14 3 14 8 0 6 14 24
59 78 5 7 7 15 4 18 -4 3 -1 6 5 6 19 0 43 108 41 184 -2 81 -15 146 -29 146
-6 0 -9 3 -8 8 1 4 -4 18 -12 32 -7 14 -12 27 -11 30 4 7 -14 11 -20 5z"/>
<path d="M1910 728 c-5 -13 -9 -17 -9 -10 -1 9 -8 8 -26 -4 l-25 -16 22 -39
c12 -22 24 -39 27 -39 3 0 15 19 26 42 15 31 17 42 7 46 -29 9 -8 17 40 13 47
-3 50 -2 36 13 -9 9 -33 16 -53 16 -28 0 -38 -5 -45 -22z"/>
<path d="M1580 605 c0 -111 5 -121 45 -91 14 10 20 30 23 79 4 60 2 68 -21 91
-15 14 -31 26 -37 26 -6 0 -10 -39 -10 -105z"/>
<path d="M1983 700 c-12 -5 -30 -24 -39 -42 -9 -18 -21 -36 -26 -39 -5 -3 -8
-30 -6 -60 3 -46 6 -54 24 -57 20 -3 21 1 16 46 -5 53 12 101 49 141 21 22 17
25 -18 11z"/>
<path d="M440 161 l-35 -6 30 -12 c40 -16 64 -18 103 -9 43 10 41 22 -5 30
-41 6 -41 6 -93 -3z"/>
</g>
</svg>
